<mxfile host="app.diagrams.net" modified="2023-11-01T01:44:12.068Z" agent="Mozilla/5.0 (X11; CrOS x86_64 14541.0.0) AppleWebKit/537.36 (KHTML, like Gecko) Chrome/118.0.0.0 Safari/537.36" version="22.0.8" etag="xR4be7Fn_8EGJSkuaMA5" type="github">
  <diagram name="Page-1" id="89rC2XyS4LJrXGPT7BXA">
    <mxGraphModel>
      <root>
        <mxCell id="0" />
        <mxCell id="1" parent="0" />
      </root>
    </mxGraphModel>
  </diagram>
</mxfile>
